<?xml version="1.0" encoding="utf-8"?>
<!-- Generator: Adobe Illustrator 24.1.2, SVG Export Plug-In . SVG Version: 6.00 Build 0)  -->
<svg version="1.1" id="Layer_1" xmlns="http://www.w3.org/2000/svg" xmlns:xlink="http://www.w3.org/1999/xlink" x="0px" y="0px"
	 viewBox="0 0 491.5 491.5" style="enable-background:new 0 0 491.5 491.5;" xml:space="preserve">
<style type="text/css">
	.st0{display:none;fill:#FFFFFF;}
	.st1{fill:#004AAC;}
	.st2{fill:#C19D9D;}
</style>
<path class="st0" d="M245.8,163.8c-41.4,0-75.6,30.7-81.1,70.6c2-4.7,3.7-9.6,5.7-14.2c2.2-4.9,4.6-9.6,7.6-14c2.7-4,6.4-8.3,7-13.3
	c0.8-6.3,10.8-6.4,10,0c-1.3,10.5-9,18.1-13.6,27.3c-3,5.9-5.1,12.2-7.6,18.3c-2.2,5.2-4.9,10.1-5.9,15.8c-0.3,2.1-1.6,3.2-3.2,3.5
	c5.8,39.6,39.9,70,81,70c45.2,0,81.9-36.7,81.9-81.9S291,163.8,245.8,163.8z"/>
<path class="st1" d="M178.9,295.1c2,1,4.1,1.7,6,2.8c1,0.5,1.9,1.1,2.8,1.7c0-0.1,0.1-0.3,0.1-0.4c-3-1.4-6-2.9-8.9-4.4
	C178.9,294.9,178.9,295,178.9,295.1z"/>
<path class="st1" d="M484.7,277.1v-60l-60-12l-23.5-58.4l33.4-47.5L391.3,60l-43.2,28.7l-59.1-21.9l-16.7-59L215,10.5l-11,57.9
	l-55.8,20.3l-47.5-31.3L59,100.2l34.4,43.1l-24,53.9l-10.4,12l-47.5,6.3v59l51.1,6.8l24,57.9l16,5.7l-31.8,44.5l31.2,31.2l44.6-31.8
	l28.7,27.6l34.4,23l5.7,40.2h52.7l10.4-25l8.3-27.1l20.3-15.1l27.7-9.4l20.9,9.4l23.5,14.6H396l16.2-14.6l19.3-23.5l-30.3-45.9
	l23-57.4L484.7,277.1z M330.6,252.8c-2.4,14.9-9.3,28.6-16.9,41.5c-6.3,10.8-12,21.4-23.2,27.8c-16.8,9.6-37.4,9.4-56.5,7.7
	c-0.6,1-1.5,1.7-2.8,2.1c-9.1,2.3-18.5-2.1-26.5-7.3c-5.7-1.4-11.4-3.4-16.8-5.6c-5.8-2.4-11.2-5.7-14.5-11.2
	c-1.2-2-2.1-4.1-2.8-6.3c-2.5-1.8-4.6-4.1-5.9-7.7c-2.5-7-1.7-14.7-2.3-22c-0.8-9-2.3-17.9-2.9-26.9c-0.5-8.2,0.9-16.3,3.8-24
	c0.1-0.2,0.2-0.4,0.2-0.6c-0.2-4.1-0.1-8.2,1.1-12.1c1.7-5.7,6-8.4,10.1-12.2c1.8-1.7,4.3-1.7,6.1-0.6c1.8-3.9,3.6-7.7,5.9-11.3
	c7.7-12,18.7-21.8,33.3-24.1C273.7,151.5,340.1,192.9,330.6,252.8z"/>
<g>
	<g>
		<path d="M491.5,285.1v-78.8l-57.5-9.6c-4.5-17.3-11.4-33.9-20.5-49.4l34-47.5l-55.7-55.7l-47.5,34c-15.5-9.2-32.1-16-49.4-20.5
			L285.2,0h-78.8l-9.6,57.5c-17.3,4.5-33.9,11.4-49.4,20.5l-47.5-34L44.1,99.8l34,47.5c-9.2,15.6-16,32.1-20.5,49.4L0,206.4v78.8
			l57.5,9.6c4.5,17.3,11.4,33.9,20.5,49.4l-34,47.5l55.7,55.7l47.5-34c15.5,9.2,32.1,16,49.4,20.5l9.6,57.5h78.8l9.6-57.5
			c17.3-4.5,33.9-11.4,49.4-20.5l47.5,34l55.7-55.7l-34-47.5c9.1-15.5,16-32.1,20.5-49.4L491.5,285.1z M415.6,283.5
			c-4.4,19.6-12.1,38.3-23.1,55.5l-3.7,5.8l31.8,44.5l-31.2,31.2l-44.6-31.8l-5.8,3.7c-17.2,11-35.9,18.7-55.5,23.1l-6.8,1.5
			l-9,53.9h-44.1l-9-53.9l-6.8-1.5c-19.6-4.4-38.3-12.1-55.5-23.1l-5.8-3.7l-44.6,31.8l-31.2-31.2l31.8-44.5l-3.7-5.8
			c-11-17.2-18.7-35.9-23.1-55.5l-1.5-6.8l-53.9-9v-44.1l53.9-9l1.5-6.8c4.3-19.6,12.1-38.3,23.1-55.5l3.7-5.8L70.9,102l31.2-31.2
			l44.6,31.8l5.8-3.7c17.2-11,35.9-18.7,55.5-23.1l6.8-1.5l9-53.9h44.1l9,53.9l6.8,1.5c19.6,4.3,38.3,12.1,55.5,23.1l5.8,3.7
			l44.6-31.8l31.2,31.2l-31.8,44.6l3.7,5.8c11,17.2,18.7,35.9,23.1,55.5l1.5,6.8l53.9,9v44.1l-53.9,9L415.6,283.5z"/>
	</g>
</g>
<g>
	<g>
		<path d="M245.8,143.4c-56.5,0-102.4,45.9-102.4,102.4s45.9,102.4,102.4,102.4s102.4-45.9,102.4-102.4S302.2,143.4,245.8,143.4z
			 M245.8,327.7c-45.2,0-81.9-36.8-81.9-81.9s36.8-81.9,81.9-81.9s81.9,36.8,81.9,81.9S290.9,327.7,245.8,327.7z"/>
	</g>
</g>
<path class="st2" d="M146.7,157.6"/>
<path class="st2" d="M129.4,177.4"/>
</svg>
